<svg width="116" height="168" viewBox="0 0 116 168" fill="none" xmlns="http://www.w3.org/2000/svg">
<path d="M101.574 65.0498C109.582 71.4559 113.585 74.659 115.035 78.5287C116.306 81.9215 116.306 85.6597 115.035 89.0526C113.585 92.9223 109.582 96.1253 101.574 102.531L38.9927 152.596C26.5101 162.583 20.2688 167.576 15.0162 167.581C10.4481 167.586 6.12668 165.509 3.27686 161.939C4.76837e-07 157.834 4.76837e-07 149.841 4.76837e-07 133.856V33.7256C4.76837e-07 17.7401 4.76837e-07 9.74738 3.27686 5.64223C6.12668 2.07205 10.4481 -0.0049243 15.0162 8.05277e-06C20.2688 0.0056795 26.5101 4.99871 38.9927 14.9848L101.574 65.0498Z" fill="#9C2B2E"/>
</svg>
