<svg width="150" height="70" viewBox="0 0 150 70" fill="none" xmlns="http://www.w3.org/2000/svg">
<g clip-path="url(#clip0_43_29)">
<path d="M63.5776 5.29062C67.6121 2.38581 69.6293 0.933405 71.832 0.371891C73.7771 -0.123964 75.8155 -0.123964 77.7606 0.371891C79.9632 0.933405 81.9805 2.38581 86.0149 5.29062L126.489 34.4317C141.141 44.9813 148.467 50.2561 149.373 54.9292C150.156 58.9694 148.815 63.1292 145.818 65.9502C142.353 69.2132 133.325 69.2132 115.27 69.2132H34.3225C16.2676 69.2132 7.24014 69.2132 3.77439 65.9502C0.778006 63.1292 -0.563717 58.9694 0.219589 54.9292C1.1256 50.2561 8.4517 44.9813 23.1039 34.4317L63.5776 5.29062Z" fill="white"/>
</g>
<defs>
<clipPath id="clip0_43_29">
<rect width="150" height="70" fill="white"/>
</clipPath>
</defs>
</svg>
