<svg width="150" height="70" viewBox="0 0 150 70" fill="none" xmlns="http://www.w3.org/2000/svg">
<path d="M63.5777 5.29062C67.6122 2.38581 69.6294 0.933406 71.8321 0.371892C73.7772 -0.123963 75.8156 -0.123963 77.7607 0.371892C79.9633 0.933406 81.9806 2.38581 86.015 5.29062L126.489 34.4317C141.141 44.9813 148.467 50.2561 149.373 54.9292C150.156 58.9694 148.815 63.1292 145.818 65.9502C142.353 69.2132 133.325 69.2132 115.27 69.2132H34.3226C16.2677 69.2132 7.2402 69.2132 3.77445 65.9502C0.778067 63.1292 -0.563656 58.9694 0.21965 54.9292C1.12566 50.2561 8.45176 44.9813 23.104 34.4317L63.5777 5.29062Z" fill="#9C2B2E"/>
</svg>
